<svg xmlns="http://www.w3.org/2000/svg" viewBox="0 0 64 64">
  <rect width="64" height="64" rx="14" fill="#07122f"/>
  <path d="M32 9c6 0 11 4 13 9-7-2-13 0-17 6-1-7 0-12 4-15Z" fill="#69d13b"/>
  <path d="M48 20c3 5 2 12-2 16-3-7-8-10-15-9 5-5 10-8 17-7Z" fill="#00aaf2"/>
  <path d="M44 42c-4 5-10 7-16 5 6-4 8-10 6-16 6 3 10 6 10 11Z" fill="#ffd400"/>
  <path d="M24 48c-6-1-10-5-12-11 7 3 13 1 17-4 0 7-1 12-5 15Z" fill="#ed0a78"/>
  <path d="M10 32c0-6 3-11 8-14-1 7 2 13 8 16-7 2-12 1-16-2Z" fill="#ff2d48"/>
</svg>
